<svg width="32" height="32" viewBox="0 0 32 32" fill="none" xmlns="http://www.w3.org/2000/svg">
<rect width="32" height="32" rx="16" fill="url(#paint0_linear_17600_63826)"/>
<path fill-rule="evenodd" clip-rule="evenodd" d="M21.3595 6.63064C21.4316 6.6159 22.0313 6.50962 22.0988 6.50341C22.5479 6.46462 22.8001 6.75942 22.7985 7.23729V20.4107C22.7985 20.7644 22.7954 21.0848 22.7209 21.4394C22.6488 21.783 22.5177 22.1065 22.3144 22.3974C22.112 22.6876 21.8528 22.9257 21.5503 23.1042C21.2446 23.2849 20.9235 23.3881 20.5806 23.4571C19.9367 23.5867 19.496 23.6162 19.0826 23.5332C18.6838 23.4525 18.3456 23.2694 18.0748 23.0212C17.6738 22.6542 17.424 22.1577 17.3697 21.6387C17.306 21.0305 17.5077 20.3812 17.9647 19.9026C18.1951 19.6605 18.4844 19.4697 18.8708 19.32C19.275 19.1632 19.721 19.0694 20.4068 18.9313L20.9491 18.8219C21.1872 18.7738 21.3905 18.7133 21.5549 18.5124C21.721 18.3107 21.7233 18.064 21.7233 17.8204V11.6693C21.7233 11.1984 21.5115 11.0704 21.0623 11.1565C20.7404 11.2193 13.8407 12.6111 13.8407 12.6111C13.4512 12.7057 13.3147 12.8329 13.3147 13.3155V22.3261C13.3147 22.6798 13.2968 23.0002 13.2224 23.3547C13.1502 23.6984 13.0191 24.0219 12.8159 24.3128C12.6134 24.603 12.3543 24.8411 12.0517 25.0196C11.7461 25.2003 11.4249 25.3081 11.082 25.3772C10.4381 25.5075 9.99749 25.5362 9.584 25.4532C9.18525 25.3733 8.84702 25.1848 8.57627 24.9365C8.1752 24.5696 7.94169 24.0731 7.88739 23.5541C7.82377 22.9459 8.00918 22.2966 8.46611 21.8179C8.69652 21.5759 8.98588 21.3851 9.37221 21.2353C9.77639 21.0786 10.2225 20.9848 10.9082 20.8467L11.4505 20.7373C11.6887 20.6892 11.8919 20.6287 12.0564 20.4278C12.2209 20.2268 12.2402 19.991 12.2402 19.7482V9.35903C12.2402 9.21939 12.2519 9.12475 12.2589 9.0782C12.2922 8.85943 12.3799 8.6717 12.5381 8.53904C12.6692 8.42888 12.8391 8.35208 13.0556 8.30631L13.0587 8.30553L21.3595 6.63064Z" fill="white"/>
<defs>
<linearGradient id="paint0_linear_17600_63826" x1="16" y1="32" x2="16" y2="0" gradientUnits="userSpaceOnUse">
<stop stop-color="#FA233B"/>
<stop offset="1" stop-color="#FB5C74"/>
</linearGradient>
</defs>
</svg>
