<?xml version="1.0" encoding="utf-8"?>
<!-- Generator: Adobe Illustrator 26.3.1, SVG Export Plug-In . SVG Version: 6.00 Build 0)  -->
<svg version="1.1" id="Layer_1" xmlns="http://www.w3.org/2000/svg" xmlns:xlink="http://www.w3.org/1999/xlink" x="0px" y="0px"
	 viewBox="0 0 900 900" style="enable-background:new 0 0 900 900;" xml:space="preserve">
<style type="text/css">
	.st0{fill:#FFFFFF;}
</style>
<g id="_x37_K3Vaa_00000178915846565741384100000001950208140886747277_">
	<g>
		<g>
			<path class="st0" d="M1217.9,881.4c-512,0-1024,0-1536,0c0-287.7,0-575.3,0-863c512,0,1024,0,1536,0
				C1217.9,306.1,1217.9,593.8,1217.9,881.4z M398.8,552.2c0.1-56.7-48.3-98.7-102.1-97.3c-50.3,1.3-97.1,50.5-93.9,105.8
				c2.8,49.3,47.1,91.8,100.9,90.5C356.3,649.8,397.2,602.6,398.8,552.2z M26.8,464.5c0,59.2,0,118,0,176.7c13.4,0,26.5,0,40.1,0
				c0-34.9,0-69.5,0-104.5c0.8,0.5,1.2,0.6,1.3,0.8c23.5,33.8,46.9,67.5,70.4,101.3c0.8,1.1,2,2.6,3,2.6c11.3,0.2,22.5,0.1,33.8,0.1
				c0-59.3,0-118,0-176.7c-13.3,0-26.2,0-39.8,0c0,35.6,0,70.8,0,107.5c-6.5-9.5-12.1-17.8-17.8-26c-18.1-26.3-36.3-52.5-54.5-78.7
				c-0.9-1.3-2.6-2.9-3.9-2.9C48.6,464.4,37.8,464.5,26.8,464.5z M319.8,365.4c5.6,0,10.6,0.2,15.6-0.1c2.8-0.1,4.3,0.9,5.8,3.2
				c10.8,17.1,21.8,34,32.6,51.1c2.3,3.6,4.8,5,9.1,4.9c11.3-0.4,22.7-0.1,34-0.1c1.2,0,2.4-0.2,3.9-0.4
				c-14-21.6-27.8-42.6-41.8-64.1c2.8-1.4,5.3-2.2,7.1-3.7c7-5.8,14.6-11.1,20.3-18c7.4-8.8,9.5-19.8,9.5-31.4
				c0-11-1.6-21.5-7.3-30.8c-11.9-19.6-31-27.3-52.6-28.3c-23.9-1.1-48-0.3-72-0.2c-1.4,0-2.9,0.2-4.2,0.3c0,59,0,117.6,0,176.4
				c13.4,0,26.4,0,39.8,0C319.8,404.5,319.8,385.2,319.8,365.4z M560.5,641.4c-14.2-21.9-27.9-43.2-41.6-64.4
				c2.9-1.5,5.6-2.8,8.2-4.3c9.3-5.2,17-12.3,22.3-21.5c7.8-13.6,8-28.2,4.8-43.1c-1.9-9-5.6-17.2-12.1-23.9
				c-13.3-13.6-30.1-19.3-48.7-19.7c-22.5-0.4-45-0.1-67.5-0.1c-1.6,0-3.2,0-4.8,0c0,59.3,0,117.9,0,176.7c13.2,0,26.1,0,39.3,0
				c0-19.7,0-39.1,0-58.7c5.3,0,10.3,0.2,15.3-0.1c2.7-0.1,4,0.8,5.4,3.1c10.9,17.6,22,35.1,33.1,52.6c1,1.5,3.1,3.2,4.7,3.2
				C532.6,641.5,546.3,641.4,560.5,641.4z M768,641.3c0-23.5,0-46.6,0-69.5c22.3,0,44,0,66.3,0c0,23.4,0,46.4,0,69.3
				c13.4,0,26.4,0,39.1,0c0-59.1,0-117.7,0-176.3c-13.3,0-26.3,0-39.7,0c0,23.7,0,47.1,0,70.3c-22.2,0-44,0-66,0
				c0-23.6,0-46.9,0-70.3c-13.1,0-25.8,0-38.4,0c0,59,0,117.7,0,176.5C742.1,641.3,754.6,641.3,768,641.3z M442.9,247.7
				c0,2.1,0,3.9,0,5.7c0,31.7-0.1,63.3,0.1,95c0.1,9.1,0.5,18.3,2,27.2c3.6,21.2,15.7,36.3,35.5,44.8c19.8,8.6,40.4,9.1,61,3.7
				c14.4-3.8,27-10.8,36.5-23.1c10.3-13.2,13.5-28.5,13.7-44.5c0.5-34.7,0.1-69.3,0.1-104c0-1.6-0.1-3.2-0.2-4.8
				c-13.4,0-26.4,0-39.7,0c0,2.2,0,4,0,5.8c0,32.5,0,65,0,97.5c0,3.4-0.4,6.9-1,10.3c-3.7,24.1-26.3,31.8-45.5,26.2
				c-15.3-4.4-22.2-20-22.3-33.9c-0.4-33.3-0.1-66.6-0.1-100c0-1.9,0-3.9,0-6.1C469.5,247.7,456.6,247.7,442.9,247.7z M667,351.2
				c22.1,0,43.8,0,65.5,0c0-11.8,0-23.1,0-34.9c-22.3,0-44.4,0-66.3,0c0-10.9,0-21.3,0-32.1c24.6,0,48.9,0,73.3,0
				c0-12.4,0-24.5,0-36.4c-38.4,0-76.4,0-114.4,0c0,59,0,117.5,0,176.2c38.6,0,77,0,115.3,0c0-12.4,0-24.4,0-36.8
				c-24.7,0-48.9,0-73.4,0C667,375.3,667,363.7,667,351.2z M207,424.1c0-46.7,0-93.1,0-140c16.6,0,32.6,0,48.6,0
				c0-12.5,0-24.4,0-36.4c-46.7,0-93,0-139.4,0c0,12.3,0,24.2,0,36.8c16.6,0,33,0,49.8,0c0,46.9,0,93.1,0,139.6
				C179.6,424.1,192.8,424.1,207,424.1z M660.4,641.2c0-1.4,0-2.4,0-3.4c0-43.5,0.1-87-0.2-130.5c0-5.5,1.7-6.1,6.3-6
				c13.6,0.3,27.2,0.1,41,0.1c0-12.5,0-24.6,0-36.6c-44.7,0-89.1,0-133.3,0c0,12.3,0,24.3,0,36.7c15.5,0,30.7,0,46.2,0
				c0,46.8,0,93.1,0,139.6C633.7,641.2,646.8,641.2,660.4,641.2z"/>
			<path d="M398.8,552.2c-1.6,50.5-42.5,97.7-95.1,99c-53.8,1.3-98.1-41.2-100.9-90.5c-3.1-55.3,43.7-104.5,93.9-105.8
				C350.5,453.5,398.9,495.5,398.8,552.2z M300,487.7c-0.6,0-1.2,0-1.8,0.1c-0.8,2.2-1.8,4.4-2.5,6.7c-4.6,15.5-8.9,31.2-13.6,46.6
				c-2.8,9.2-3.5,18.4-0.1,27.3c6.3,16.3,13.1,32.5,19.7,48.7c0.5,1.3,1.6,2.4,2.8,4.2c1.2-3.7,2.1-6.3,2.9-9
				c4.7-16.2,9.8-32.3,13.7-48.7c1.6-6.7,2.5-14.6,0.5-20.9c-4.8-15.7-11.5-31-17.5-46.3C303.1,493.5,301.5,490.6,300,487.7z"/>
			<path d="M26.8,464.5c11,0,21.8-0.1,32.6,0.1c1.3,0,3,1.6,3.9,2.9c18.2,26.2,36.4,52.5,54.5,78.7c5.7,8.2,11.3,16.5,17.8,26
				c0-36.7,0-72,0-107.5c13.6,0,26.5,0,39.8,0c0,58.7,0,117.4,0,176.7c-11.3,0-22.5,0.1-33.8-0.1c-1,0-2.3-1.5-3-2.6
				c-23.5-33.7-46.9-67.5-70.4-101.3c-0.2-0.2-0.5-0.3-1.3-0.8c0,35,0,69.6,0,104.5c-13.6,0-26.7,0-40.1,0
				C26.8,582.4,26.8,523.7,26.8,464.5z"/>
			<path d="M319.8,365.4c0,19.8,0,39.1,0,58.7c-13.4,0-26.4,0-39.8,0c0-58.7,0-117.3,0-176.4c1.4-0.1,2.8-0.3,4.2-0.3
				c24,0,48-0.9,72,0.2c21.6,1,40.7,8.7,52.6,28.3c5.7,9.3,7.2,19.8,7.3,30.8c0,11.6-2.1,22.6-9.5,31.4c-5.8,6.8-13.4,12.2-20.3,18
				c-1.8,1.5-4.3,2.3-7.1,3.7c14,21.5,27.7,42.5,41.8,64.1c-1.6,0.2-2.8,0.4-3.9,0.4c-11.3,0-22.7-0.2-34,0.1
				c-4.4,0.1-6.9-1.3-9.1-4.9c-10.8-17.1-21.8-34-32.6-51.1c-1.5-2.4-3-3.4-5.8-3.2C330.4,365.6,325.4,365.4,319.8,365.4z
				 M320.2,283.4c0,15.7,0,31.2,0,47c9.3,0,18.3,0.2,27.3,0c15.8-0.4,26.6-9.1,25.6-26.3c-0.7-13-8.6-19.7-20.8-20.6
				C341.7,282.8,331.1,283.4,320.2,283.4z"/>
			<path d="M560.5,641.4c-14.3,0-27.9,0.1-41.6-0.1c-1.6,0-3.8-1.7-4.7-3.2c-11.2-17.4-22.2-35-33.1-52.6c-1.4-2.2-2.7-3.2-5.4-3.1
				c-5,0.2-10,0.1-15.3,0.1c0,19.6,0,39,0,58.7c-13.2,0-26.1,0-39.3,0c0-58.8,0-117.3,0-176.7c1.6,0,3.2,0,4.8,0
				c22.5,0,45-0.3,67.5,0.1c18.6,0.4,35.3,6.1,48.7,19.7c6.5,6.6,10.2,14.9,12.1,23.9c3.2,14.9,3,29.6-4.8,43.1
				c-5.3,9.2-13,16.2-22.3,21.5c-2.6,1.4-5.2,2.7-8.2,4.3C532.7,598.2,546.4,619.5,560.5,641.4z M460.1,499.9c0,15.8,0,30.3,0,44.8
				c0,2.8,0.9,3.9,3.8,3.8c8.8-0.4,17.6-0.5,26.4-1c16.9-1,24.9-11.6,23.6-27.5c-0.7-9.3-6.7-17.3-15.7-18.2
				C485.7,500.4,473.1,500.4,460.1,499.9z"/>
			<path d="M768,641.3c-13.4,0-25.8,0-38.7,0c0-58.8,0-117.5,0-176.5c12.6,0,25.3,0,38.4,0c0,23.4,0,46.7,0,70.3c22.1,0,43.8,0,66,0
				c0-23.2,0-46.6,0-70.3c13.4,0,26.3,0,39.7,0c0,58.5,0,117.2,0,176.3c-12.8,0-25.7,0-39.1,0c0-22.9,0-45.9,0-69.3
				c-22.3,0-44,0-66.3,0C768,594.7,768,617.8,768,641.3z"/>
			<path d="M442.9,247.7c13.7,0,26.6,0,40.1,0c0,2.2,0,4.1,0,6.1c0,33.3-0.3,66.7,0.1,100c0.2,13.9,7,29.5,22.3,33.9
				c19.2,5.6,41.7-2.1,45.5-26.2c0.5-3.4,1-6.8,1-10.3c0.1-32.5,0-65,0-97.5c0-1.8,0-3.6,0-5.8c13.3,0,26.3,0,39.7,0
				c0.1,1.6,0.2,3.2,0.2,4.8c0,34.7,0.3,69.3-0.1,104c-0.2,15.9-3.4,31.2-13.7,44.5c-9.5,12.2-22.1,19.3-36.5,23.1
				c-20.6,5.4-41.2,4.8-61-3.7c-19.8-8.5-31.9-23.6-35.5-44.8c-1.5-8.9-2-18.1-2-27.2c-0.2-31.7-0.1-63.3-0.1-95
				C442.9,251.6,442.9,249.8,442.9,247.7z"/>
			<path d="M667,351.2c0,12.5,0,24.1,0,36.1c24.5,0,48.7,0,73.4,0c0,12.4,0,24.4,0,36.8c-38.3,0-76.7,0-115.3,0
				c0-58.7,0-117.3,0-176.2c38,0,76,0,114.4,0c0,12,0,24,0,36.4c-24.4,0-48.6,0-73.3,0c0,10.8,0,21.1,0,32.1c22,0,44,0,66.3,0
				c0,11.8,0,23.1,0,34.9C710.9,351.2,689.2,351.2,667,351.2z"/>
			<path d="M207,424.1c-14.1,0-27.4,0-41.1,0c0-46.5,0-92.7,0-139.6c-16.8,0-33.1,0-49.8,0c0-12.6,0-24.5,0-36.8
				c46.4,0,92.8,0,139.4,0c0,12,0,23.9,0,36.4c-15.9,0-32,0-48.6,0C207,331.1,207,377.4,207,424.1z"/>
			<path d="M660.4,641.2c-13.6,0-26.7,0-40.1,0c0-46.5,0-92.7,0-139.6c-15.4,0-30.7,0-46.2,0c0-12.5,0-24.4,0-36.7
				c44.3,0,88.6,0,133.3,0c0,12,0,24,0,36.6c-13.7,0-27.4,0.2-41-0.1c-4.6-0.1-6.4,0.5-6.3,6c0.3,43.5,0.2,87,0.2,130.5
				C660.4,638.7,660.4,639.7,660.4,641.2z"/>
			<path class="st0" d="M300,487.7c1.4,2.9,3.1,5.7,4.2,8.7c6,15.4,12.6,30.6,17.5,46.3c2,6.4,1.1,14.2-0.5,20.9
				c-3.9,16.4-9.1,32.5-13.7,48.7c-0.8,2.7-1.7,5.3-2.9,9c-1.2-1.8-2.3-2.9-2.8-4.2c-6.6-16.2-13.4-32.3-19.7-48.7
				c-3.4-9-2.7-18.1,0.1-27.3c4.7-15.5,9.1-31.1,13.6-46.6c0.7-2.3,1.6-4.5,2.5-6.7C298.8,487.8,299.4,487.8,300,487.7z"/>
			<path class="st0" d="M320.2,283.4c10.9,0,21.5-0.6,32.1,0.2c12.2,0.9,20.1,7.5,20.8,20.6c1,17.2-9.9,25.9-25.6,26.3
				c-9,0.2-17.9,0-27.3,0C320.2,314.6,320.2,299.1,320.2,283.4z"/>
			<path class="st0" d="M460.1,499.9c13,0.6,25.6,0.5,38.1,1.8c9,0.9,15,8.9,15.7,18.2c1.3,15.9-6.7,26.5-23.6,27.5
				c-8.8,0.5-17.6,0.6-26.4,1c-2.8,0.1-3.8-1-3.8-3.8C460.2,530.2,460.1,515.7,460.1,499.9z"/>
		</g>
	</g>
</g>
</svg>
