<svg version="1.1" id="Layer_1" xmlns="http://www.w3.org/2000/svg" xmlns:xlink="http://www.w3.org/1999/xlink" x="0px" y="0px"
	 viewBox="0 0 900 900" style="background:transparent">
<style type="text/css">
	#logo { fill: #FFFFFF !important; }
</style>
<g id="logo" fill="#FFFFFF">
	<g>
		<g>
			
			<!-- N -->
			<path d="M26.8,464.5c11,0,21.8-0.1,32.6,0.1c1.3,0,3,1.6,3.9,2.9c18.2,26.2,36.4,52.5,54.5,78.7c5.7,8.2,11.3,16.5,17.8,26
				c0-36.7,0-72,0-107.5c13.6,0,26.5,0,39.8,0c0,58.7,0,117.4,0,176.7c-11.3,0-22.5,0.1-33.8-0.1c-1,0-2.3-1.5-3-2.6
				c-23.5-33.7-46.9-67.5-70.4-101.3c-0.2-0.2-0.5-0.3-1.3-0.8c0,35,0,69.6,0,104.5c-13.6,0-26.7,0-40.1,0
				C26.8,582.4,26.8,523.7,26.8,464.5z"/>
			
			<!-- O with compass cutout -->
			<path fill-rule="evenodd" d="M398.8,552.2c-1.6,50.5-42.5,97.7-95.1,99c-53.8,1.3-98.1-41.2-100.9-90.5c-3.1-55.3,43.7-104.5,93.9-105.8
				C350.5,453.5,398.9,495.5,398.8,552.2z M300,487.7c-0.6,0-1.2,0-1.8,0.1c-0.8,2.2-1.8,4.4-2.5,6.7c-4.6,15.5-8.9,31.2-13.6,46.6
				c-2.8,9.2-3.5,18.4-0.1,27.3c6.3,16.3,13.1,32.5,19.7,48.7c0.5,1.3,1.6,2.4,2.8,4.2c1.2-3.7,2.1-6.3,2.9-9
				c4.7-16.2,9.8-32.3,13.7-48.7c1.6-6.7,2.5-14.6,0.5-20.9c-4.8-15.7-11.5-31-17.5-46.3C303.1,493.5,301.5,490.6,300,487.7z"/>
			
			<!-- R with compass cutout -->
			<path fill-rule="evenodd" d="M319.8,365.4c0,19.8,0,39.1,0,58.7c-13.4,0-26.4,0-39.8,0c0-58.7,0-117.3,0-176.4c1.4-0.1,2.8-0.3,4.2-0.3
				c24,0,48-0.9,72,0.2c21.6,1,40.7,8.7,52.6,28.3c5.7,9.3,7.2,19.8,7.3,30.8c0,11.6-2.1,22.6-9.5,31.4c-5.8,6.8-13.4,12.2-20.3,18
				c-1.8,1.5-4.3,2.3-7.1,3.7c14,21.5,27.7,42.5,41.8,64.1c-1.6,0.2-2.8,0.4-3.9,0.4c-11.3,0-22.7-0.2-34,0.1
				c-4.4,0.1-6.9-1.3-9.1-4.9c-10.8-17.1-21.8-34-32.6-51.1c-1.5-2.4-3-3.4-5.8-3.2C330.4,365.6,325.4,365.4,319.8,365.4z
				M320.2,283.4c0,15.7,0,31.2,0,47c9.3,0,18.3,0.2,27.3,0c15.8-0.4,26.6-9.1,25.6-26.3c-0.7-13-8.6-19.7-20.8-20.6
				C341.7,282.8,331.1,283.4,320.2,283.4z"/>
			
			<!-- Second R with compass cutout -->
			<path fill-rule="evenodd" d="M560.5,641.4c-14.3,0-27.9,0.1-41.6-0.1c-1.6,0-3.8-1.7-4.7-3.2c-11.2-17.4-22.2-35-33.1-52.6c-1.4-2.2-2.7-3.2-5.4-3.1
				c-5,0.2-10,0.1-15.3,0.1c0,19.6,0,39,0,58.7c-13.2,0-26.1,0-39.3,0c0-58.8,0-117.3,0-176.7c1.6,0,3.2,0,4.8,0
				c22.5,0,45-0.3,67.5,0.1c18.6,0.4,35.3,6.1,48.7,19.7c6.5,6.6,10.2,14.9,12.1,23.9c3.2,14.9,3,29.6-4.8,43.1
				c-5.3,9.2-13,16.2-22.3,21.5c-2.6,1.4-5.2,2.7-8.2,4.3C532.7,598.2,546.4,619.5,560.5,641.4z M460.1,499.9c0,15.8,0,30.3,0,44.8
				c0,2.8,0.9,3.9,3.8,3.8c8.8-0.4,17.6-0.5,26.4-1c16.9-1,24.9-11.6,23.6-27.5c-0.7-9.3-6.7-17.3-15.7-18.2
				C485.7,500.4,473.1,500.4,460.1,499.9z"/>
			
			<!-- H -->
			<path d="M768,641.3c-13.4,0-25.8,0-38.7,0c0-58.8,0-117.5,0-176.5c12.6,0,25.3,0,38.4,0c0,23.4,0,46.7,0,70.3c22.1,0,43.8,0,66,0
				c0-23.2,0-46.6,0-70.3c13.4,0,26.3,0,39.7,0c0,58.5,0,117.2,0,176.3c-12.8,0-25.7,0-39.1,0c0-22.9,0-45.9,0-69.3
				c-22.3,0-44,0-66.3,0C768,594.7,768,617.8,768,641.3z"/>
			
			<!-- U -->
			<path d="M442.9,247.7c13.7,0,26.6,0,40.1,0c0,2.2,0,4.1,0,6.1c0,33.3-0.3,66.7,0.1,100c0.2,13.9,7,29.5,22.3,33.9
				c19.2,5.6,41.7-2.1,45.5-26.2c0.5-3.4,1-6.8,1-10.3c0.1-32.5,0-65,0-97.5c0-1.8,0-3.6,0-5.8c13.3,0,26.3,0,39.7,0
				c0.1,1.6,0.2,3.2,0.2,4.8c0,34.7,0.3,69.3-0.1,104c-0.2,15.9-3.4,31.2-13.7,44.5c-9.5,12.2-22.1,19.3-36.5,23.1
				c-20.6,5.4-41.2,4.8-61-3.7c-19.8-8.5-31.9-23.6-35.5-44.8c-1.5-8.9-2-18.1-2-27.2c-0.2-31.7-0.1-63.3-0.1-95
				C442.9,251.6,442.9,249.8,442.9,247.7z"/>
			
			<!-- E -->
			<path d="M667,351.2c0,12.5,0,24.1,0,36.1c24.5,0,48.7,0,73.4,0c0,12.4,0,24.4,0,36.8c-38.3,0-76.7,0-115.3,0
				c0-58.7,0-117.3,0-176.2c38,0,76,0,114.4,0c0,12,0,24,0,36.4c-24.4,0-48.6,0-73.3,0c0,10.8,0,21.1,0,32.1c22,0,44,0,66.3,0
				c0,11.8,0,23.1,0,34.9C710.9,351.2,689.2,351.2,667,351.2z"/>
			
			<!-- T -->
			<path d="M207,424.1c-14.1,0-27.4,0-41.1,0c0-46.5,0-92.7,0-139.6c-16.8,0-33.1,0-49.8,0c0-12.6,0-24.5,0-36.8
				c46.4,0,92.8,0,139.4,0c0,12,0,23.9,0,36.4c-15.9,0-32,0-48.6,0C207,331.1,207,377.4,207,424.1z"/>
			
			<!-- Second T -->
			<path d="M660.4,641.2c-13.6,0-26.7,0-40.1,0c0-46.5,0-92.7,0-139.6c-15.4,0-30.7,0-46.2,0c0-12.5,0-24.4,0-36.7
				c44.3,0,88.6,0,133.3,0c0,12,0,24,0,36.6c-13.7,0-27.4,0.2-41-0.1c-4.6-0.1-6.4,0.5-6.3,6c0.3,43.5,0.2,87,0.2,130.5
				C660.4,638.7,660.4,639.7,660.4,641.2z"/>
		</g>
	</g>
</g>
</svg>