<svg width="32" height="32" viewBox="0 0 32 32" fill="none" xmlns="http://www.w3.org/2000/svg">
<rect width="32" height="32" rx="16" fill="#0081FB"/>
<path d="M7.76786 18.5503C7.76786 19.3551 7.94451 19.973 8.1754 20.3468C8.47812 20.8365 8.92964 21.0439 9.38995 21.0439C9.98367 21.0439 10.5268 20.8966 11.5735 19.4489C12.412 18.2886 13.4001 16.6599 14.0649 15.6389L15.1908 13.909C15.9729 12.7077 16.8781 11.3722 17.916 10.4669C18.7634 9.7281 19.6774 9.31763 20.5973 9.31763C22.1417 9.31763 23.6128 10.2126 24.7386 11.8911C25.9708 13.7295 26.5689 16.045 26.5689 18.4345C26.5689 19.855 26.2889 20.8988 25.8125 21.7234C25.3522 22.5209 24.455 23.3176 22.9458 23.3176V21.0439C24.238 21.0439 24.5605 19.8565 24.5605 18.4975C24.5605 16.561 24.109 14.4119 23.1144 12.8763C22.4085 11.7871 21.4937 11.1215 20.4873 11.1215C19.3989 11.1215 18.5229 11.9424 17.5385 13.4062C17.0152 14.1839 16.4779 15.1317 15.8747 16.2011L15.2106 17.3775C13.8766 19.7429 13.5386 20.2816 12.8716 21.1707C11.7025 22.7276 10.7042 23.3176 9.38995 23.3176C7.8309 23.3176 6.84503 22.6425 6.23446 21.6252C5.73603 20.7962 5.49121 19.7084 5.49121 18.4689L7.76786 18.5503Z" fill="white"/>
<path d="M7.28613 12.0517C8.3299 10.4428 9.83618 9.31763 11.5638 9.31763C12.5644 9.31763 13.559 9.61375 14.5977 10.4618C15.7338 11.389 16.9447 12.9158 18.4553 15.4322L18.997 16.3352C20.3047 18.5136 21.0486 19.6344 21.484 20.1629C22.044 20.8416 22.4362 21.0439 22.9456 21.0439C24.2379 21.0439 24.5604 19.8565 24.5604 18.4975L26.5688 18.4345C26.5688 19.855 26.2887 20.8988 25.8123 21.7234C25.352 22.5209 24.4548 23.3176 22.9456 23.3176C22.0074 23.3176 21.1762 23.1139 20.257 22.2467C19.5504 21.5812 18.7244 20.3989 18.0889 19.3361L16.1985 16.1784C15.25 14.5936 14.38 13.4121 13.8764 12.877C13.3347 12.3016 12.6384 11.6067 11.5272 11.6067C10.6278 11.6067 9.86404 12.2378 9.22488 13.2032L7.28613 12.0517Z" fill="white"/>
<path d="M11.5273 11.6067C10.628 11.6067 9.8642 12.2378 9.22503 13.2032C8.32126 14.5673 7.76786 16.5991 7.76786 18.5503C7.76786 19.3551 7.94451 19.973 8.1754 20.3468L6.23446 21.6252C5.73603 20.7962 5.49121 19.7084 5.49121 18.4689C5.49121 16.215 6.10985 13.8658 7.28629 12.0517C8.33006 10.4428 9.83634 9.31763 11.564 9.31763L11.5273 11.6067Z" fill="white"/>
</svg>
